<svg width="22" height="21" viewBox="0 0 22 21" fill="none" xmlns="http://www.w3.org/2000/svg">
<path d="M11.8482 2.2002C12.7763 2.20267 13.2474 2.20762 13.6541 2.21917L13.8141 2.22494C13.9989 2.23154 14.1812 2.23979 14.4015 2.24969C15.2793 2.29094 15.8782 2.42954 16.4037 2.6333C16.9482 2.84285 17.4069 3.12664 17.8656 3.58449C18.2852 3.99676 18.6098 4.49565 18.8167 5.04634C19.0205 5.57184 19.1591 6.17077 19.2004 7.04936C19.2103 7.26881 19.2185 7.45112 19.2251 7.63674L19.2301 7.79679C19.2424 8.20267 19.2474 8.67373 19.249 9.60182L19.2499 10.2172V11.298C19.2519 11.8997 19.2455 12.5014 19.2309 13.103L19.2259 13.263C19.2193 13.4486 19.2111 13.631 19.2012 13.8504C19.1599 14.729 19.0197 15.3271 18.8167 15.8534C18.6098 16.4041 18.2852 16.903 17.8656 17.3153C17.4533 17.7349 16.9544 18.0596 16.4037 18.2665C15.8782 18.4702 15.2793 18.6088 14.4015 18.6501L13.8141 18.6748L13.6541 18.6798C13.2474 18.6913 12.7763 18.6971 11.8482 18.6988L11.2328 18.6996H10.1529C9.55091 18.7017 8.94889 18.6954 8.34706 18.6806L8.18702 18.6757C7.99118 18.6682 7.79538 18.6597 7.59964 18.6501C6.72187 18.6088 6.12294 18.4702 5.59661 18.2665C5.04622 18.0594 4.54762 17.7348 4.13559 17.3153C3.71564 16.9031 3.39074 16.4042 3.18358 15.8534C2.97981 15.3279 2.84122 14.729 2.79997 13.8504L2.77522 13.263L2.77109 13.103C2.75589 12.5014 2.74901 11.8997 2.75047 11.298V9.60182C2.74819 9.00009 2.75424 8.39835 2.76862 7.79679L2.77439 7.63674C2.78099 7.45112 2.78924 7.26881 2.79914 7.04936C2.84039 6.17077 2.97899 5.57267 3.18275 5.04634C3.39039 4.49542 3.71587 3.99651 4.13642 3.58449C4.5482 3.16504 5.04651 2.84043 5.59661 2.6333C6.12294 2.42954 6.72105 2.29094 7.59964 2.24969C7.81908 2.23979 8.00222 2.23154 8.18702 2.22494L8.34706 2.21999C8.94862 2.20534 9.55036 2.19901 10.1521 2.20102L11.8482 2.2002ZM11.0002 6.32504C9.90618 6.32504 8.85701 6.75962 8.08345 7.53318C7.3099 8.30674 6.87532 9.35591 6.87532 10.4499C6.87532 11.5439 7.3099 12.593 8.08345 13.3666C8.85701 14.1402 9.90618 14.5747 11.0002 14.5747C12.0941 14.5747 13.1433 14.1402 13.9169 13.3666C14.6904 12.593 15.125 11.5439 15.125 10.4499C15.125 9.35591 14.6904 8.30674 13.9169 7.53318C13.1433 6.75962 12.0941 6.32504 11.0002 6.32504ZM11.0002 7.97498C11.3252 7.97493 11.647 8.03889 11.9473 8.16321C12.2476 8.28754 12.5205 8.46979 12.7503 8.69957C12.9802 8.92935 13.1625 9.20215 13.2869 9.5024C13.4114 9.80265 13.4754 10.1245 13.4755 10.4495C13.4755 10.7745 13.4116 11.0963 13.2872 11.3966C13.1629 11.6969 12.9807 11.9698 12.7509 12.1996C12.5211 12.4295 12.2483 12.6118 11.9481 12.7362C11.6478 12.8607 11.326 12.9247 11.001 12.9248C10.3446 12.9248 9.7151 12.664 9.25096 12.1999C8.78683 11.7358 8.52608 11.1063 8.52608 10.4499C8.52608 9.7935 8.78683 9.164 9.25096 8.69986C9.7151 8.23573 10.3446 7.97498 11.001 7.97498M15.3321 5.08759C15.0586 5.08759 14.7963 5.19623 14.6029 5.38962C14.4095 5.58301 14.3009 5.8453 14.3009 6.1188C14.3009 6.39229 14.4095 6.65459 14.6029 6.84798C14.7963 7.04137 15.0586 7.15001 15.3321 7.15001C15.6056 7.15001 15.8679 7.04137 16.0613 6.84798C16.2546 6.65459 16.3633 6.39229 16.3633 6.1188C16.3633 5.8453 16.2546 5.58301 16.0613 5.38962C15.8679 5.19623 15.6056 5.08759 15.3321 5.08759Z" fill="#626161"/>
</svg>
