<svg width="21" height="22" viewBox="0 0 21 22" fill="none" xmlns="http://www.w3.org/2000/svg">
<path d="M14.4486 5.18657C13.8554 4.50921 13.5285 3.63948 13.5286 2.73914H10.8468V13.5009C10.8266 14.0834 10.5809 14.6353 10.1615 15.0401C9.74212 15.4449 9.1819 15.6709 8.59903 15.6706C7.36664 15.6706 6.34254 14.6638 6.34254 13.4141C6.34254 11.9213 7.78322 10.8018 9.2673 11.2617V8.51924C6.27311 8.12001 3.6521 10.4459 3.6521 13.4141C3.6521 16.3041 6.04746 18.361 8.59035 18.361C11.3155 18.361 13.5286 16.1479 13.5286 13.4141V7.95511C14.6161 8.73608 15.9217 9.15509 17.2605 9.15279V6.47103C17.2605 6.47103 15.6289 6.54914 14.4486 5.18657Z" fill="#626161"/>
</svg>
