<svg width="26" height="26" viewBox="0 0 26 26" fill="none" xmlns="http://www.w3.org/2000/svg">
<path d="M3.90769 10.0852C6.99333 9.18502 3.19231 15.9712 5.16718 17.968C6.08564 19.1408 8.91846 19.5172 11.1631 16.9696C12.9287 20.1229 17.1528 19.3916 19.3036 16.2332C19.6482 15.7168 20.0699 14.8511 20.5687 13.6363L22.0374 14.5314L23 11.9401C21.9333 11.2199 20.9815 10.2653 20.7503 7.49953L17.8733 7.48274C18.1041 10.7286 17.1256 15.186 15.3103 15.6661C14.5219 15.895 14.135 15.5094 14.1497 14.5095L14.9138 7.49953L11.7128 7.49393C11.5256 14.7384 7.53846 18.295 7.75231 13.7894L8.37385 9.91588C8.75333 6.58812 5.95333 6.36993 3 7.95218L3.90769 10.0852Z" fill="#626161" stroke="#626161" stroke-width="0.5" stroke-linecap="round" stroke-linejoin="round"/>
</svg>
