<svg width="28" height="16" viewBox="0 0 28 16" fill="none" xmlns="http://www.w3.org/2000/svg">
<g clip-path="url(#clip0_78_63)">
<path fill-rule="evenodd" clip-rule="evenodd" d="M13.855 0.00012207C14.6607 0.00012207 15.4871 0.020853 16.288 0.0547762L17.2341 0.100007L18.1397 0.153719L18.9878 0.2112L19.7623 0.271508C20.603 0.335482 21.3942 0.694072 21.9965 1.28412C22.5988 1.87416 22.9735 2.65781 23.0548 3.49704L23.0925 3.89752L23.1631 4.75502C23.2291 5.64362 23.2781 6.61231 23.2781 7.53861C23.2781 8.4649 23.2291 9.43359 23.1631 10.3222L23.0925 11.1797L23.0548 11.5802C22.9735 12.4195 22.5986 13.2033 21.9962 13.7934C21.3937 14.3834 20.6023 14.7419 19.7614 14.8057L18.9887 14.8651L18.1406 14.9235L17.2341 14.9772L16.288 15.0224C15.4775 15.0575 14.6663 15.0758 13.855 15.0771C13.0437 15.0758 12.2325 15.0575 11.4219 15.0224L10.4759 14.9772L9.5703 14.9235L8.72222 14.8651L7.94765 14.8057C7.10693 14.7417 6.31575 14.3831 5.71347 13.7931C5.11119 13.2031 4.73643 12.4194 4.65521 11.5802L4.61752 11.1797L4.54685 10.3222C4.47507 9.39601 4.43673 8.46755 4.43188 7.53861C4.43188 6.61231 4.48088 5.64362 4.54685 4.75502L4.61752 3.89752L4.65521 3.49704C4.7364 2.65796 5.11102 1.87443 5.71311 1.2844C6.3152 0.694378 7.10615 0.335694 7.9467 0.271508L8.72034 0.2112L9.56842 0.153719L10.4749 0.100007L11.421 0.0547762C12.2319 0.0196535 13.0434 0.00143149 13.855 0.00012207ZM11.9704 5.2535V9.82371C11.9704 10.2591 12.4415 10.5304 12.8184 10.3137L16.7762 8.02861C16.8623 7.97903 16.9338 7.90764 16.9835 7.82161C17.0333 7.73559 17.0595 7.63797 17.0595 7.53861C17.0595 7.43924 17.0333 7.34162 16.9835 7.2556C16.9338 7.16957 16.8623 7.09818 16.7762 7.0486L12.8184 4.76444C12.7325 4.71481 12.6349 4.68868 12.5357 4.6887C12.4364 4.68871 12.3389 4.71487 12.2529 4.76453C12.1669 4.8142 12.0956 4.88563 12.046 4.97163C11.9964 5.05763 11.9703 5.15517 11.9704 5.25445V5.2535Z" fill="#626161"/>
</g>
<defs>
<clipPath id="clip0_78_63">
<rect width="28.0001" height="15.077" fill="white"/>
</clipPath>
</defs>
</svg>
